<svg height="512pt" viewBox="-136 0 511 512" width="512pt" xmlns="http://www.w3.org/2000/svg"><path d="m232.453125 288.015625h-223.953125c-4.425781 0-8-3.574219-8-8 0-4.421875 3.574219-8 8-8h223.953125c4.421875 0 8 3.578125 8 8 0 4.425781-3.578125 8-8 8zm0 0"/><path d="m16.5 344.03125c-4.425781 0-8-3.574219-8-8v-56.015625c0-4.421875 3.574219-8 8-8s8 3.578125 8 8v56.015625c0 4.425781-3.574219 8-8 8zm0 0"/><path d="m224.453125 344.03125c-4.425781 0-8-3.574219-8-8v-56.015625c0-4.421875 3.574219-8 8-8 4.421875 0 8 3.578125 8 8v56.015625c0 4.425781-3.578125 8-8 8zm0 0"/><path d="m224.453125 344.03125h-207.953125c-4.425781 0-8-3.574219-8-8 0-4.421875 3.574219-8 8-8h207.953125c4.421875 0 8 3.578125 8 8 0 4.425781-3.578125 8-8 8zm0 0"/><path d="m16.5 512c-4.425781 0-8-3.574219-8-8v-167.96875c0-4.421875 3.574219-8 8-8s8 3.578125 8 8v167.96875c0 4.425781-3.574219 8-8 8zm0 0"/><path d="m40.5 512c-4.425781 0-8-3.574219-8-8v-167.96875c0-4.421875 3.574219-8 8-8s8 3.578125 8 8v167.96875c0 4.425781-3.574219 8-8 8zm0 0"/><path d="m200.421875 512c-4.425781 0-8-3.574219-8-8v-167.96875c0-4.421875 3.574219-8 8-8 4.421875 0 8 3.578125 8 8v167.96875c0 4.425781-3.578125 8-8 8zm0 0"/><path d="m224.421875 512c-4.425781 0-8-3.574219-8-8v-167.96875c0-4.421875 3.574219-8 8-8 4.421875 0 8 3.578125 8 8v167.96875c0 4.425781-3.578125 8-8 8zm0 0"/><path d="m40.5 512h-24c-4.425781 0-8-3.574219-8-8s3.574219-8 8-8h24c4.425781 0 8 3.574219 8 8s-3.574219 8-8 8zm0 0"/><path d="m224.421875 512h-24c-4.425781 0-8-3.574219-8-8s3.574219-8 8-8h24c4.421875 0 8 3.574219 8 8s-3.578125 8-8 8zm0 0"/><path d="m208.445312 80h-175.9375c-8.824218 0-16-7.175781-16-16v-48c0-8.824219 7.175782-16 16-16h175.9375c8.824219 0 16 7.175781 16 16v48c0 8.832031-7.175781 16-16 16zm0-16v8zm-175.9375-48v48h175.914063l.023437-48zm0 0"/><path d="m40.445312 288.015625c-4.425781 0-8-3.574219-8-8v-208.015625c0-4.414062 3.574219-8 8-8 4.421876 0 8 3.585938 8 8v208.007812c0 4.433594-3.578124 8.007813-8 8.007813zm0 0"/><path d="m72.445312 288.015625c-4.425781 0-8-3.574219-8-8v-208.015625c0-4.414062 3.574219-8 8-8 4.421876 0 8 3.585938 8 8v208.007812c0 4.433594-3.578124 8.007813-8 8.007813zm0 0"/><path d="m104.445312 288.015625c-4.425781 0-8-3.574219-8-8v-208.015625c0-4.414062 3.574219-8 8-8 4.421876 0 8 3.585938 8 8v208.007812c0 4.433594-3.578124 8.007813-8 8.007813zm0 0"/><path d="m136.445312 288.015625c-4.425781 0-8-3.574219-8-8v-208.015625c0-4.414062 3.574219-8 8-8 4.421876 0 8 3.585938 8 8v208.007812c0 4.433594-3.578124 8.007813-8 8.007813zm0 0"/><path d="m168.445312 288.015625c-4.425781 0-8-3.574219-8-8v-208.015625c0-4.414062 3.574219-8 8-8 4.421876 0 8 3.585938 8 8v208.007812c0 4.433594-3.578124 8.007813-8 8.007813zm0 0"/><path d="m200.445312 288.015625c-4.425781 0-8-3.574219-8-8v-208.015625c0-4.414062 3.574219-8 8-8 4.421876 0 8 3.585938 8 8v208.007812c0 4.433594-3.578124 8.007813-8 8.007813zm0 0"/><path d="m56.46875 47.871094c-4.425781 0-8.039062-3.582032-8.039062-8 0-4.414063 3.535156-8 7.949218-8h.089844c4.414062 0 8 3.585937 8 8 0 4.417968-3.585938 8-8 8zm0 0"/><path d="m184.597656 47.871094c-4.425781 0-8.042968-3.582032-8.042968-8 0-4.414063 3.539062-8 7.953124-8h.089844c4.414063 0 8 3.585937 8 8 0 4.417968-3.59375 8-8 8zm0 0"/></svg>