<svg height="480pt" viewBox="0 -16 480.14578 480" width="480pt" xmlns="http://www.w3.org/2000/svg"><path d="m328.144531 232.074219v-8c-.035156-30.914063-25.085937-55.964844-56-56h-176c-30.910156.035156-55.964843 25.085937-56 56v8c-17.265625-.09375-32.636719 10.917969-38.09375 27.300781-5.460937 16.378906.226563 34.414062 14.09375 44.699219v72c0 13.253906 10.746094 24 24 24v40c0 4.417969 3.582031 8 8 8h32c4.417969 0 8-3.582031 8-8v-40h192v40c0 4.417969 3.582031 8 8 8h32c4.417969 0 8-3.582031 8-8v-40c13.257813 0 24-10.746094 24-24v-72.210938c13.773438-10.292969 19.390625-28.257812 13.941407-44.566406-5.453126-16.304687-20.746094-27.28125-37.941407-27.222656zm-232-48h176c22.082031.023437 39.976563 17.917969 40 40v11.390625c-14.558593 6.355468-23.976562 20.722656-24 36.609375v24.207031c-6.882812-5.292969-15.316406-8.179688-24-8.207031h-160c-8.683593.027343-17.117187 2.914062-24 8.207031v-24.207031c.023438-15.90625-9.410156-30.304688-24-36.640625v-11.359375c.027344-22.082031 17.921875-39.976563 40-40zm192 200h-208v-16h208zm0-32h-208v-24c0-13.257813 10.746094-24 24-24h160c13.257813 0 24 10.742187 24 24zm-256 24v-64.800781c2.632813.539062 5.3125.804687 8 .800781v-16c-4.21875-.003907-8.359375-1.125-12-3.257813-10.03125-5.773437-14.535156-17.871094-10.71875-28.800781 3.34375-9.65625 12.5-16.082031 22.71875-15.941406h.175781c1.96875 0 3.929688.265625 5.824219.796875 10.605469 2.703125 18.019531 12.257812 18 23.203125v112h-24c-4.417969 0-8-3.582031-8-8zm40 56h-16v-32h16zm240 0h-16v-32h16zm16-136v16c2.6875 0 5.367188-.265625 8-.800781v64.800781c0 4.417969-3.582031 8-8 8h-24v-112c0-13.257813 10.746094-24 24-24 13.257813 0 24 10.742187 24 24 0 13.253906-10.742187 24-24 24zm0 0"/><path d="m224.144531 264.074219h16v-16h16v-16h-16v-16h-16v16h-16v16h16zm0 0"/><path d="m128.144531 264.074219h16v-16h16v-16h-16v-16h-16v16h-16v16h16zm0 0"/><path d="m472.144531 400.074219h-32v-208h24c4.417969 0 8-3.582031 8-8v-176c0-4.417969-3.582031-8.0000002-8-8.0000002h-64c-4.417969 0-8 3.5820312-8 8.0000002v176c0 4.417969 3.582031 8 8 8h24v208h-32c-4.417969 0-8 3.582031-8 8v32c0 4.417969 3.582031 8 8 8h80c4.417969 0 8-3.582031 8-8v-32c0-4.417969-3.582031-8-8-8zm-64-384h48v160h-48zm56 416h-64v-16h64zm0 0"/><path d="m80.144531 128.074219h208c4.417969 0 8-3.582031 8-8v-112c0-4.417969-3.582031-8.0000002-8-8.0000002h-208c-4.417969 0-8 3.5820312-8 8.0000002v112c0 4.417969 3.582031 8 8 8zm8-112h192v96h-192zm0 0"/><path d="m218.488281 90.421875 40-40 11.3125 11.3125-40 40zm0 0"/><path d="m186.484375 82.414062 40-40 11.3125 11.316407-40 39.996093zm0 0"/></svg>